# xmcd
#
# Track frame offsets:
#	150
#	14507
#	27270
#	40252
#	52806
#	64188
#	76183
#	89596
#	100713
#	114327
#	127224
#	141993
#	152697
#	165865
#	179399
#	189785
#	203403
#	214743
#	225090
#	238475
#
# Disc length: 3332 seconds
#
# Revision: 2
# Processed by: cddbd v1.5.2PL0 Copyright (c) Steve Scherf et al.
# Submitted via: EasyCDDAExtractor 16.1.0.1
#
DISCID=fd0d0214
DTITLE=Various Artist - Compact Disc Club - Το Νέο Κύμα (2016)
DYEAR=2016
DGENRE=Country
TTITLE0=Ρένα Κουμιώτη - Σταμάτησε του ρολογιού τους δείκτες
TTITLE1=Μαρία Δουράκη - Αγόρι μου των 16 χρόνων
TTITLE2=Μιχάλης Βιολάρης - Αν βουληθώ να σ' αρνηθώ
TTITLE3=Πόπη Αστεριάδη and Γιάννης Πουλόπουλος - Φραγκοκκλησιά
TTITLE4=Νέλλη Μάνου - Σύννεφα πλατιά
TTITLE5=Αλέκα Μαβίλη - Τ' αγόρι εκείνο
TTITLE6=Ρένα Κουμιώτη - Κόρη του γιαλού
TTITLE7=Καίτη Χωματά - Στον ουρανό είναι ένα αστέρι
TTITLE8=Αλέκα Μαβίλη and Γιάννης Σπανός - Όλο το καλοκαίρι
TTITLE9=Αρλέτα - Τις άδειες νύχτες
TTITLE10=Γιώργος Ζωγράφος - Άκρη δεν έχει ο ουρανός
TTITLE11=Πόπη Αστεριάδη - Η Μύκονος κάνει πανιά
TTITLE12=Καίτη Χωματά - Κι αν σ' αγαπώ, δε σ' ορίζω
TTITLE13=Ρένα Κουμιώτη - Θυμήσου κάποια δειλινά
TTITLE14=Καίτη Χωματά - Μικρό ταξίδι στο γιαλό
TTITLE15=Γιώργος Ζωγράφος and Ελένη Σταυροπούλου - Αλλού χορεύει η χαρά
TTITLE16=Μιχάλης Βιολάρης and Καίτη Χωματά - Βάρκα χωρίς πανιά
TTITLE17=Αλέξης Γεωργίου - Πήρε λάθος μονοπάτι
TTITLE18=Γιώργος Ζωγράφος - Το όμορφο νησί
TTITLE19=Καίτη Χωματά - Το γράμμα
EXTD=
EXTT0=
EXTT1=
EXTT2=
EXTT3=
EXTT4=
EXTT5=
EXTT6=
EXTT7=
EXTT8=
EXTT9=
EXTT10=
EXTT11=
EXTT12=
EXTT13=
EXTT14=
EXTT15=
EXTT16=
EXTT17=
EXTT18=
EXTT19=
PLAYORDER=
